<?xml version="1.0" standalone="no"?>
<!DOCTYPE svg PUBLIC "-//W3C//DTD SVG 20010904//EN"
 "http://www.w3.org/TR/2001/REC-SVG-20010904/DTD/svg10.dtd">
<svg version="1.0" xmlns="http://www.w3.org/2000/svg"
 width="930.000000pt" height="214.000000pt" viewBox="0 0 930.000000 214.000000"
 preserveAspectRatio="xMidYMid meet">

<g transform="translate(0.000000,214.000000) scale(0.100000,-0.100000)"
fill="#5C5CAD" stroke="none">
<path d="M1580 1878 c-63 -32 -90 -77 -90 -148 0 -96 56 -155 159 -167 68 -8
131 11 174 54 80 77 55 218 -47 264 -58 26 -140 25 -196 -3z"/>
<path d="M360 1145 l0 -625 165 0 165 0 0 60 0 59 43 -43 c65 -65 138 -89 252
-84 74 4 100 9 149 34 150 74 236 236 236 444 0 222 -88 383 -248 458 -50 24
-69 27 -157 27 -118 0 -169 -19 -234 -85 l-41 -42 0 211 0 211 -165 0 -165 0
0 -625z m573 34 c45 -23 78 -64 93 -117 35 -120 -19 -233 -124 -261 -114 -31
-212 59 -212 194 1 93 41 162 110 188 27 10 111 7 133 -4z"/>
<path d="M2900 1145 l0 -625 165 0 165 0 2 191 3 191 129 -191 129 -191 199 0
c157 0 198 3 192 13 -5 6 -89 112 -187 234 -118 146 -176 227 -171 235 7 13
265 343 332 426 l34 42 -199 0 -200 0 -129 -184 -129 -184 -3 334 -2 334 -165
0 -165 0 0 -625z"/>
<path d="M7700 1558 l0 -212 -42 41 c-75 72 -118 88 -233 88 -91 0 -106 -3
-166 -31 -82 -39 -146 -103 -187 -187 -42 -87 -55 -165 -50 -299 8 -184 68
-306 190 -388 71 -47 138 -64 237 -58 93 5 155 32 212 91 l39 41 0 -62 0 -62
165 0 165 0 0 625 0 625 -165 0 -165 0 0 -212z m-73 -396 c96 -68 97 -265 1
-333 -149 -106 -329 60 -264 244 16 44 39 72 81 99 42 27 138 21 182 -10z"/>
<path d="M7457 1090 c-14 -11 -31 -36 -37 -56 -39 -118 84 -214 172 -135 31
27 33 34 33 91 0 57 -2 64 -33 91 -40 36 -96 39 -135 9z"/>
<path d="M8717 1712 c-31 -32 -57 -61 -57 -66 0 -4 15 -26 34 -49 200 -247
263 -585 165 -889 -31 -96 -83 -195 -144 -275 -30 -40 -55 -76 -55 -80 1 -5
27 -34 59 -67 l58 -58 47 55 c104 123 188 295 228 471 29 128 30 353 1 486
-27 123 -71 238 -133 340 -46 77 -129 188 -140 190 -3 0 -31 -26 -63 -58z"/>
<path d="M8492 1474 l-59 -66 47 -69 c27 -39 59 -104 75 -151 24 -70 29 -99
29 -188 0 -92 -4 -116 -31 -192 -17 -50 -49 -113 -76 -151 l-47 -65 64 -68 63
-68 48 64 c107 144 155 294 155 480 0 132 -21 233 -70 339 -28 60 -110 183
-129 195 -5 3 -36 -24 -69 -60z"/>
<path d="M4225 1460 c-82 -27 -148 -79 -195 -151 -49 -75 -68 -133 -80 -238
-17 -148 11 -282 79 -388 45 -70 88 -108 161 -142 48 -23 68 -26 160 -26 122
0 167 16 238 86 l42 42 0 -61 0 -62 165 0 165 0 0 475 0 475 -165 0 -165 0 0
-62 0 -62 -42 41 c-67 64 -119 85 -218 89 -66 3 -98 0 -145 -16z m323 -297
c129 -84 98 -324 -48 -363 -119 -32 -230 75 -218 212 6 73 31 119 80 151 58
37 128 37 186 0z"/>
<path d="M5393 1466 c-184 -60 -292 -237 -293 -477 0 -83 27 -204 59 -267 35
-69 115 -146 183 -178 57 -26 73 -29 168 -29 94 1 110 4 156 27 28 15 65 43
82 62 17 20 34 36 37 36 3 0 5 -27 5 -60 l0 -60 165 0 165 0 0 475 0 475 -165
0 -165 0 0 -60 c0 -33 -2 -60 -5 -60 -3 0 -19 16 -36 35 -51 57 -128 89 -228
92 -54 2 -102 -2 -128 -11z m296 -291 c109 -56 132 -236 42 -327 -86 -86 -216
-65 -271 43 -27 52 -27 156 0 209 18 36 55 70 90 83 30 11 112 7 139 -8z"/>
<path d="M6860 1464 c-66 -18 -109 -45 -173 -109 l-47 -48 0 81 0 82 -165 0
-165 0 0 -475 0 -475 165 0 165 0 0 228 c0 125 5 243 10 263 11 40 52 83 95
99 17 6 69 14 118 17 l87 6 0 173 c0 197 8 184 -90 158z"/>
<path d="M1510 995 l0 -475 165 0 165 0 0 475 0 475 -165 0 -165 0 0 -475z"/>
<path d="M1990 1335 l0 -135 178 0 c98 0 182 -3 185 -7 4 -3 -19 -34 -51 -67
-94 -100 -258 -279 -286 -312 -25 -31 -26 -36 -26 -163 l0 -131 380 0 380 0 0
135 0 135 -195 0 c-107 0 -195 4 -195 8 0 4 58 68 128 142 71 74 156 164 190
200 l61 65 1 133 0 132 -375 0 -375 0 0 -135z"/>
<path d="M8306 1278 c-10 -13 -36 -42 -58 -64 l-40 -42 27 -47 c20 -34 29 -64
32 -113 5 -60 2 -73 -26 -126 l-31 -59 60 -62 60 -63 26 31 c55 64 77 133 82
247 3 88 1 114 -17 165 -19 54 -78 155 -91 155 -3 0 -14 -10 -24 -22z"/>
</g>
</svg>
